<?xml version="1.0" encoding="UTF-8"?>
<svg xmlns="http://www.w3.org/2000/svg" viewBox="0 0 292 132">
  <defs>
    <style>
      .cls-1 {
        fill: #fdb720;
      }

      .cls-2 {
        fill: #758cc7;
        stroke: #fff;
        stroke-miterlimit: 1;
      }

      .cls-3 {
        fill: #fff;
        fill-rule: evenodd;
      }

      .cls-4 {
        fill: #f04e23;
      }

      .cls-5 {
        fill: #7ac143;
      }

      .cls-6 {
        fill: #84c441;
      }
    </style>
  </defs>
  <g id="Layer_2" data-name="Layer 2">
    <path class="cls-5" d="M73,8l-8-7c0,0-2,0-3,0-1,0-2,0-2,2-3,5-7,14-5,27,0,2,0,4,1,7-5-5-12-9-19-11-6-1-11,0-17,2-5,2-9,5-1,1C3,4,0,49,0,56c0,0,0,2,1,2,0,0,2,0,2-1h0c0-5,3-11,7-14,0,4,3,7,7,9,4,2,8,2,11-1,3-3,2-1-4-13-2,0-4-1-6-2,3-3,8-4,8-4,3,0,7-1,1,0,6,1,12,5,16,1,0,0,0,0,0,0,2-2,5-4,7-5,3-1,6-2,9-3,0,0,0,0,0,0,0-2,0-5,1-8,0-4,3-9,5-13,0-1,0-3,0-4ZM22,42c3,2,3,5,0,5,0,0,0,0,0,0,0,0,0,0,0,0-2,0-3,0-4-2-1-1-2-3-2-5,2,0,4,0,6,2Z"/>
  </g>
  <g id="Layer_1" data-name="Layer 1">
    <g>
      <path class="cls-4" d="M119,79v51h-8l-5-13c-6,1-15,15-27,15s-24-5-31-16c-7-1-1-22-1-36s4-27,11-37c7-1,18-15,31-15s18,3,25,9c6,6,11,13,12,22l-16,3c-3-12-1-18-21-18s-13,3-17,9c-4,6-7,15-7,27s8,38,24,38,11-2,15-6,6-1,6-17h-21v-15h38Z"/>
      <path class="cls-6" d="M17,38h-16l-5,93h27l-5-93Z"/>
      <path class="cls-1" d="M292,81c0,14-4,26-13,36-8,1-21,14-36,14h-33V31h37c14,0,25,5,33,14,8,1,12,22,12,36Z"/>
    </g>
    <path class="cls-3" d="M249,46c-18,0-32,14-32,31s24,42,32,42,32-26,32-42-14-31-32-31h0ZM244,96c-1,1-7-1-11-6-5-5-7-1-6-11,1-1,7,1,11,6,5,5,7,1,6,11h0ZM254,96c-1-1,1-7,6-11,5-5,1-8,11-6,1,1-1,7-6,11-5,5-1,8-11,6h0Z"/>
    <ellipse class="cls-2" cx="162" cy="27" rx="14" ry="8"/>
    <path class="cls-2" d="M203,36c-4,5-21,9-41,9s-38-4-41-9c4-5,21-9,41-9s38,4,41,9Z"/>
  </g>
</svg>