<?xml version="1.0" encoding="UTF-8"?>
<svg xmlns="http://www.w3.org/2000/svg" viewBox="0 0 558.99 292.29">
  <defs>
    <style>
      .cls-1, .cls-2, .cls-3, .cls-4, .cls-5 {
        fill: #231f20;
      }

      .cls-2 {
        stroke-width: .5px;
      }

      .cls-2, .cls-6, .cls-7, .cls-3, .cls-8, .cls-4 {
        stroke-miterlimit: 10;
      }

      .cls-2, .cls-4 {
        stroke: #fed900;
      }

      .cls-6 {
        fill: none;
      }

      .cls-6, .cls-7, .cls-3, .cls-8, .cls-5, .cls-9 {
        stroke: #231f20;
      }

      .cls-6, .cls-3, .cls-8, .cls-9 {
        stroke-width: 3px;
      }

      .cls-7, .cls-10, .cls-8, .cls-9 {
        fill: #fed900;
      }

      .cls-5 {
        font-family: MyriadPro-Regular, 'Myriad Pro';
        font-size: 13.36px;
      }

      .cls-9 {
        stroke-linecap: round;
        stroke-linejoin: round;
      }
    </style>
  </defs>
  <g id="Layer_4" data-name="Layer 4">
    <rect class="cls-10" width="558.99" height="292.29" rx="8.96" ry="8.96"/>
  </g>
  <g id="Layer_1" data-name="Layer 1">
    <rect class="cls-8" x="4.92" y="4.37" width="549.38" height="283.55" rx="8.96" ry="8.96"/>
  </g>
  <g id="Layer_2" data-name="Layer 2">
    <path class="cls-3" d="M298.96,168.68c.03.21.04.43.04.65v31.32c0,3.19-2.59,5.78-5.78,5.78s-5.79-2.59-5.79-5.78v-26.83h-3.82v87.13c0,2.89-2.34,5.23-5.23,5.23h-4.98c-3.67,0-6.64-2.97-6.64-6.64v-37.28c0-.98-.8-1.78-1.78-1.78h-6.65c-.99,0-1.79.8-1.79,1.78v37.29c0,3.66-2.97,6.63-6.63,6.63-.69,0-1.35.01-2,.01-4.68,0-8.21-.31-8.21-5.26v-87.11h-3.82v26.83c0,3.19-2.59,5.78-5.79,5.78s-5.78-2.59-5.78-5.78v-31.32c0-.22.01-.44.04-.65-.03-.21-.04-.43-.04-.65,0-3.19,2.59-5.78,5.78-5.78h63.13c3.19,0,5.78,2.59,5.78,5.78,0,.22-.01.44-.04.65Z"/>
    <path class="cls-4" d="M278.76,137.39c0,9.45-7.71,27.02-17.16,27.02s-17.05-17.57-17.05-27.02,7.66-17.11,17.11-17.11,17.11,7.66,17.11,17.11Z"/>
    <path class="cls-10" d="M259.3,140.82c-1.19,1.6-4.26,2.02-7.34.87s-5.13-3.46-4.99-5.46c1.19-1.6,4.26-2.02,7.34-.87s5.13,3.46,4.99,5.46Z"/>
    <path class="cls-10" d="M259.3,140.82c-1.19,1.6-4.26,2.02-7.34.87s-5.13-3.46-4.99-5.46c1.19-1.6,4.26-2.02,7.34-.87s5.13,3.46,4.99,5.46Z"/>
    <path class="cls-10" d="M264.28,140.82c1.19,1.6,4.26,2.02,7.34.87s5.13-3.46,4.99-5.46c-1.19-1.6-4.26-2.02-7.34-.87s-5.13,3.46-4.99,5.46Z"/>
    <path class="cls-10" d="M264.28,140.82c1.19,1.6,4.26,2.02,7.34.87s5.13-3.46,4.99-5.46c-1.19-1.6-4.26-2.02-7.34-.87s-5.13,3.46-4.99,5.46Z"/>
    <path class="cls-4" d="M290.52,127.03c0,5.01-14.22,5.83-28.86,5.83s-28.16-.82-28.16-5.83,13.52-12.3,28.16-12.3,28.86,7.29,28.86,12.3Z"/>
    <path class="cls-2" d="M274.76,120.75c0,4.43-5.87,8.02-13.11,8.02s-13.11-3.59-13.11-8.02,6.22-12.65,13.45-12.65,12.76,8.22,12.76,12.65Z"/>
    <path class="cls-1" d="M233.25,148.85s.01,0,0,0c.04.15.05.3.05.45,0,.62-.25,1.19-.67,1.6-.41.41-.98.66-1.6.66h-10.54v112.99c0,1.03-.85,1.88-1.88,1.88h-1.01c-1.04,0-1.88-.85-1.88-1.88v-112.99h-10.54c-1.25,0-2.27-1.01-2.27-2.26,0-.15.02-.3.05-.45h0c-.03-.15-.05-.3-.05-.45v-25.86c0-1.25,1.02-2.26,2.27-2.26.63,0,1.19.25,1.6.66.41.41.66.98.66,1.6v24.49h8.52v-24.49c0-1.25,1.01-2.26,2.26-2.26.63,0,1.19.25,1.6.66.41.41.67.98.67,1.6v24.49h8.27v-24.49c0-1.25,1.02-2.26,2.27-2.26.62,0,1.19.25,1.6.66.42.41.67.98.67,1.6v25.86c0,.15-.01.3-.05.44Z"/>
  </g>
  <g id="Layer_3" data-name="Layer 3">
    <ellipse class="cls-4" cx="101.45" cy="49.79" rx="21.57" ry="13.57"/>
    <polygon class="cls-1" points="150.47 216.15 46.3 216.15 76.39 77.95 125.29 78.08 150.47 216.15"/>
    <path class="cls-4" d="M167.64,64.5c-5.61,8.37-33.11,14.73-66.19,14.73s-60.58-6.36-66.19-14.73c5.61-8.36,33.11-14.71,66.19-14.71s60.58,6.35,66.19,14.71Z"/>
    <path class="cls-10" d="M125.44,185.23l-.3-.04c-1.3.64-5.13-6.44-5.64-7.17l-10.17-20-8.14-11c-6.06-7.15-14.75-14.3-4.95-18.04l4.46-2.2c3.42-1.69,6.61.9,7.98,5.21l2.84,11.67c.31.86,15.36,40.86,13.91,41.57Z"/>
    <path class="cls-10" d="M97.22,122.89c.31-2.35.81-4.81-.04-7.02-1-2.62-3.65-4.22-6.25-5.27-1.36-.55-3.06-.96-4.17,0-.88.76-.98,2.16-.48,3.21s1.46,1.8,2.47,2.38,2.1,1.01,3.07,1.65c1.9,1.26,3.22,3.24,4.07,5.34.41,1.01.62,3.58,1.38,4.23-.18-1.53-.25-2.97-.05-4.51Z"/>
    <path class="cls-9" d="M321.55,215.25c13.38,0,26.76,0,40.13,0h75.6c13.95,0,27.89,0,41.84.02.57,0,1.17,0,1.68-.26.57-.28.96-.84,1.31-1.37,0-1.99,4.47-6.63,5.63-8.36,2.11-3.13,4.22-6.27,6.33-9.4,4.03-5.98,8.07-11.96,12.1-17.94,8.56-12.68,17.11-25.37,25.67-38.05,4.3-6.37,8.59-12.74,12.89-19.11-14.92,0-29.83,0-44.75,0-26.65,0-53.3,0-79.95,0-11.03,0-22.07,0-33.1-.01-.51,0-1.03,0-1.49.22-.58.27-.97.82-1.33,1.36-7.84,11.64-15.68,23.27-23.52,34.9-13.03,19.32-26.07,38.64-39.05,58Z"/>
    <path class="cls-7" d="M349.61,194.25c7.21-9.82,21.4-13.81,32.67-9.18,3.76,1.54,7.17,3.91,11.04,5.14,6.74,2.14,14.07.61,20.84-1.41s13.58-4.56,20.65-4.39c8.36.19,16.1,4.13,23.83,7.32s16.41,5.74,24.35,3.1"/>
    <path class="cls-7" d="M363.24,172.14c7.21-9.82,21.4-13.81,32.67-9.18,3.76,1.54,7.17,3.91,11.04,5.14,6.74,2.14,14.07.61,20.84-1.41s13.58-4.56,20.65-4.39c8.36.19,16.1,4.13,23.83,7.32s16.41,5.74,24.35,3.1"/>
    <path class="cls-7" d="M376.21,150.03c7.21-9.82,21.4-13.81,32.67-9.18,3.76,1.54,7.17,3.91,11.04,5.14,6.74,2.14,14.07.61,20.84-1.41s13.58-4.56,20.65-4.39c8.36.19,16.1,4.13,23.83,7.32s16.41,5.74,24.35,3.1"/>
    <path class="cls-1" d="M465.18,161.28c-.54-1.55-1.1-3.17-.92-4.8.2-1.84,1.32-3.49,2.77-4.65s3.19-1.87,4.96-2.44c.68,1.16.6,2.63.17,3.91s-1.18,2.41-1.82,3.6c-1.86,3.49-2.22,6.96-2.59,10.8-1.33-.86-2-4.85-2.55-6.42Z"/>
    <path class="cls-1" d="M423.57,161.28c-.54-1.55-1.1-3.17-.92-4.8.2-1.84,1.32-3.49,2.77-4.65s3.19-1.87,4.96-2.44c.68,1.16.6,2.63.17,3.91s-1.18,2.41-1.82,3.6c-1.86,3.49-2.22,6.96-2.59,10.8-1.33-.86-2-4.85-2.55-6.42Z"/>
    <path class="cls-1" d="M388.08,155.39c-.54-1.55-1.1-3.17-.92-4.8.2-1.84,1.32-3.49,2.77-4.65s3.19-1.87,4.96-2.44c.68,1.16.6,2.63.17,3.91s-1.18,2.41-1.82,3.6c-1.86,3.49-2.22,6.96-2.59,10.8-1.33-.86-2-4.85-2.55-6.42Z"/>
    <path class="cls-1" d="M442.46,179.92c-.54-1.55-1.1-3.17-.92-4.8.2-1.84,1.32-3.49,2.77-4.65s3.19-1.87,4.96-2.44c.68,1.16.6,2.63.17,3.91s-1.18,2.41-1.82,3.6c-1.86,3.49-2.22,6.96-2.59,10.8-1.33-.86-2-4.85-2.55-6.42Z"/>
    <path class="cls-1" d="M396.34,185.14c-.54-1.55-1.1-3.17-.92-4.8.2-1.84,1.32-3.49,2.77-4.65s3.19-1.87,4.96-2.44c.68,1.16.6,2.63.17,3.91s-1.18,2.41-1.82,3.6c-1.86,3.49-2.22,6.96-2.59,10.8-1.33-.86-2-4.85-2.55-6.42Z"/>
    <path class="cls-1" d="M402.31,133.82c-.54-1.55-1.1-3.17-.92-4.8.2-1.84,1.32-3.49,2.77-4.65s3.19-1.87,4.96-2.44c.68,1.16.6,2.63.17,3.91s-1.18,2.41-1.82,3.6c-1.86,3.49-2.22,6.96-2.59,10.8-1.33-.86-2-4.85-2.55-6.42Z"/>
    <path class="cls-1" d="M459.06,133.82c-.54-1.55-1.1-3.17-.92-4.8.2-1.84,1.32-3.49,2.77-4.65s3.19-1.87,4.96-2.44c.68,1.16.6,2.63.17,3.91s-1.18,2.41-1.82,3.6c-1.86,3.49-2.22,6.96-2.59,10.8-1.33-.86-2-4.85-2.55-6.42Z"/>
    <path class="cls-1" d="M392.37,119.54h-5.91v-23.7c1.62-1.79,2.78-16.9,3.14-16.2.32.63,1.5,14.98,2.78,16.14v23.77Z"/>
    <path class="cls-1" d="M406,119.54h-5.91v-23.7c1.62-1.79,2.78-16.9,3.14-16.2.32.63,1.5,14.98,2.78,16.14v23.77Z"/>
    <path class="cls-1" d="M421.45,119.54h-5.91v-23.7c1.62-1.79,2.78-16.9,3.14-16.2.32.63,1.5,14.98,2.78,16.14v23.77Z"/>
    <path class="cls-1" d="M434.85,119.54h-5.91v-23.7c1.62-1.79,2.78-16.9,3.14-16.2.32.63,1.5,14.98,2.78,16.14v23.77Z"/>
    <path class="cls-1" d="M448.25,120.07h-5.91v-23.7c1.62-1.79,2.78-16.9,3.14-16.2.32.63,1.5,14.98,2.78,16.14v23.77Z"/>
    <path class="cls-1" d="M461.66,119.54h-5.91v-23.7c1.62-1.79,2.78-16.9,3.14-16.2.32.63,1.5,14.98,2.78,16.14v23.77Z"/>
    <path class="cls-1" d="M475.06,120.07h-5.91v-23.7c1.62-1.79,2.78-16.9,3.14-16.2.32.63,1.5,14.98,2.78,16.14v23.77Z"/>
    <path class="cls-1" d="M488.47,119.54h-5.91v-23.7c1.62-1.79,2.78-16.9,3.14-16.2.32.63,1.5,14.98,2.78,16.14v23.77Z"/>
    <path class="cls-1" d="M501.87,119.54h-5.91v-23.7c1.62-1.79,2.78-16.9,3.14-16.2.32.63,1.5,14.98,2.78,16.14v23.77Z"/>
    <path class="cls-1" d="M514.74,119.54h-5.91v-23.7c1.62-1.79,2.78-16.9,3.14-16.2.32.63,1.5,14.98,2.78,16.14v23.77Z"/>
    <path class="cls-1" d="M527.62,119.54h-5.91v-23.7c1.62-1.79,2.78-16.9,3.14-16.2.32.63,1.5,14.98,2.78,16.14v23.77Z"/>
    <path class="cls-1" d="M540.49,119.54h-5.91v-23.7c1.62-1.79,2.78-16.9,3.14-16.2.32.63,1.5,14.98,2.78,16.14v23.77Z"/>
    <rect class="cls-1" x="385.79" y="97.42" width="154.7" height="4.6"/>
    <rect class="cls-1" x="385.79" y="107.13" width="154.7" height="4.6"/>
  </g>
  <g id="Layer_5" data-name="Layer 5">
    <g id="Hotspot1">
      <g>
        <path class="cls-7" d="M479.52,61.55h-26.32c-.77,0-1.25-.83-.87-1.5l12.59-22.79c.38-.67,1.35-.67,1.73,0l13.73,22.79c.38.67-.1,1.5-.87,1.5Z"/>
        <text class="cls-5" transform="translate(462.68 56.16)"><tspan x="0" y="0">1</tspan></text>
      </g>
      <line class="cls-6" x1="466.36" y1="61.55" x2="465.79" y2="119.13"/>
    </g>
    <g id="Hotspot2">
      <path class="cls-7" d="M275.62,198.04h-26.32c-.77,0-1.25-.83-.87-1.5l12.59-22.79c.38-.67,1.35-.67,1.73,0l13.73,22.79c.38.67-.1,1.5-.87,1.5Z"/>
      <text class="cls-5" transform="translate(258.78 192.65)"><tspan x="0" y="0">2</tspan></text>
    </g>
    <g id="Hotspot3">
      <path class="cls-7" d="M113.3,75.77h-26.32c-.77,0-1.25-.83-.87-1.5l12.59-22.79c.38-.67,1.35-.67,1.73,0l13.73,22.79c.38.67-.1,1.5-.87,1.5Z"/>
      <text class="cls-5" transform="translate(96.46 70.38)"><tspan x="0" y="0">3</tspan></text>
    </g>
  </g>
</svg>