<?xml version="1.0" encoding="UTF-8"?>
<svg id="Layer_1" xmlns="http://www.w3.org/2000/svg" version="1.1" viewBox="0 0 106.87 105.48">
  <!-- Generator: Adobe Illustrator 30.0.0, SVG Export Plug-In . SVG Version: 2.1.1 Build 123)  -->
  <defs>
    <style>
      .st0 {
        fill: #7ac143;
      }

      .st1 {
        fill: #f7941d;
        fill-rule: evenodd;
      }
    </style>
  </defs>
  <path class="st1" d="M74.66,32.36c-17.77,0-32.2,13.74-32.2,30.67s23.87,42.45,32.2,42.45,32.21-25.5,32.21-42.45-14.42-30.67-32.21-30.67h0ZM69.5,81.94c-1.46,1.47-6.52-1.25-11.29-6.09-4.78-4.82-7.46-9.93-6-11.41,1.45-1.48,6.51,1.24,11.28,6.07,4.76,4.83,7.46,9.94,6.01,11.43h0ZM79.73,81.9c-1.48-1.48,1.24-6.58,6.09-11.4,4.84-4.83,9.95-7.54,11.43-6.06,1.48,1.47-1.25,6.57-6.09,11.39-4.84,4.83-9.96,7.53-11.44,6.07h0Z"/>
  <path class="st0" d="M73.21,7.68l-7.59-6.8c-.77-.69-1.8-.99-2.82-.84-1.02.16-1.91.77-2.43,1.65-2.84,4.82-7.04,14.41-5.27,26.82.3,2.1.77,4.28,1.45,6.53-5.37-5.05-11.95-9.17-19.22-10.56-5.57-1.04-11.26-.5-17.14,2.13-4.74,2.1-8.89,5.41-10.14,10.48C3.35,40.2.46,48.87,0,56.17c-.05.89.6,1.68,1.49,1.78.92.1,1.76-.56,1.86-1.49v-.07c.55-4.8,2.56-11.34,6.56-14.29.75,3.9,3.38,7.31,6.61,9.12,3.94,2.23,8.44,1.97,11.03-1.06,3.04-3.5,2.39-9.6-3.6-12.57-1.95-.96-4.17-1.46-6.35-1.64,2.66-2.82,7.76-4.14,7.88-4.15,3.38-.89,6.63-1.12,10.37-.25,6.07,1.41,11.57,5.42,15.86,10.01-.06.06-.11.13-.16.19,2.19-2.14,4.69-3.98,7.5-5.46,2.79-1.47,5.72-2.49,8.71-3.09-.19.02-.38.04-.58.07.21-2.47.6-5.39,1.33-8.47,1-4.2,2.63-8.69,5.27-12.68.94-1.42.7-3.32-.57-4.45ZM21.71,41.94c3.45,1.92,2.82,4.99.58,5.22-.02,0-.08,0-.1,0,0,0,0,0,0,0-1.71,0-3.22-.95-4.33-2.14-1.14-1.22-1.96-2.87-2.04-4.58,1.97.14,4.17.55,5.9,1.5Z"/>
</svg>