<?xml version="1.0" encoding="UTF-8"?>
<svg xmlns="http://www.w3.org/2000/svg" version="1.1" viewBox="0 0 291.78 132.03">
  <!-- Generator: Adobe Illustrator 30.0.0, SVG Export Plug-In . SVG Version: 2.1.1 Build 123)  -->
  <defs>
    <style>
      .st0 {
        fill: #fdb720;
      }

      .st1 {
        fill: #758cc7;
        stroke: #fff;
        stroke-miterlimit: 10;
      }

      .st2 {
        fill: #fff;
        fill-rule: evenodd;
      }

      .st3 {
        fill: #f04e23;
      }

      .st4 {
        fill: #7ac143;
      }

      .st5 {
        fill: #84c441;
      }
    </style>
  </defs>
  <g id="Layer_2">
    <path class="st4" d="M73.21,7.68l-7.59-6.8c-.77-.69-1.8-.99-2.82-.84-1.02.16-1.91.77-2.43,1.65-2.84,4.82-7.04,14.41-5.27,26.82.3,2.1.77,4.28,1.45,6.53-5.37-5.05-11.95-9.17-19.22-10.56-5.57-1.04-11.26-.5-17.14,2.13-4.74,2.1-8.89,5.41-10.14,10.48C3.35,40.2.46,48.87,0,56.17c-.05.89.6,1.68,1.49,1.78.92.1,1.76-.56,1.86-1.49v-.07c.55-4.8,2.56-11.34,6.56-14.29.75,3.9,3.38,7.31,6.61,9.12,3.94,2.23,8.44,1.97,11.03-1.06,3.04-3.5,2.39-9.6-3.6-12.57-1.95-.96-4.17-1.46-6.35-1.64,2.66-2.82,7.76-4.14,7.88-4.15,3.38-.89,6.63-1.12,10.37-.25,6.07,1.41,11.57,5.42,15.86,10.01-.06.06-.11.13-.16.19,2.19-2.14,4.69-3.98,7.5-5.46,2.79-1.47,5.72-2.49,8.71-3.09-.19.02-.38.04-.58.07.21-2.47.6-5.39,1.33-8.47,1-4.2,2.63-8.69,5.27-12.68.94-1.42.7-3.32-.57-4.45ZM21.71,41.94c3.45,1.92,2.82,4.99.58,5.22-.02,0-.08,0-.1,0,0,0,0,0,0,0-1.71,0-3.22-.95-4.33-2.14-1.14-1.22-1.96-2.87-2.04-4.58,1.97.14,4.17.55,5.9,1.5Z"/>
  </g>
  <g id="Layer_1">
    <g>
      <path class="st3" d="M119.44,79.37v51.12h-7.98l-5.49-13.48c-5.81,10.01-14.82,15.01-27.03,15.01-13.62,0-23.79-5.17-30.51-15.53-6.71-10.35-10.07-22.34-10.07-35.96,0-14.4,3.75-26.6,11.24-36.58,7.49-9.98,17.98-14.98,31.46-14.98,10.06,0,18.33,2.92,24.83,8.75,6.49,5.83,10.59,13.1,12.3,21.79l-15.67,2.78c-2.93-12.21-9.94-18.31-21.02-18.31-7.08,0-12.85,2.88-17.32,8.64-4.47,5.76-6.7,14.62-6.7,26.59,0,25.25,7.91,37.87,23.73,37.87,6.15,0,11.24-2.12,15.27-6.37s6.04-9.86,6.04-16.85h-20.65v-14.5h37.57Z"/>
      <path class="st5" d="M170.17,37.66h-16.23l-5.48,92.9h26.65l-4.93-92.9Z"/>
      <path class="st0" d="M291.78,80.69c0,14.16-4.24,26-12.74,35.52-8.5,9.52-20.65,14.28-36.47,14.28h-32.82V30.52h36.84c13.63,0,24.56,4.82,32.82,14.46,8.25,9.65,12.37,21.55,12.37,35.71Z"/>
    </g>
    <path class="st2" d="M248.95,45.97c-17.77,0-32.2,13.74-32.2,30.67s23.87,42.45,32.2,42.45,32.21-25.5,32.21-42.45-14.42-30.67-32.21-30.67h0ZM243.79,95.55c-1.46,1.47-6.52-1.25-11.29-6.09-4.78-4.82-7.46-9.93-6-11.41,1.45-1.48,6.51,1.24,11.28,6.07,4.76,4.83,7.46,9.94,6.01,11.43h0ZM254.03,95.51c-1.48-1.48,1.24-6.58,6.09-11.4,4.84-4.83,9.95-7.54,11.43-6.06,1.48,1.47-1.25,6.57-6.09,11.39-4.84,4.83-9.96,7.53-11.44,6.07h0Z"/>
    <ellipse class="st1" cx="161.78" cy="26.96" rx="13.5" ry="8.49"/>
    <path class="st1" d="M203.22,36.17c-3.51,5.24-20.73,9.22-41.44,9.22s-37.92-3.98-41.44-9.22c3.51-5.23,20.73-9.21,41.44-9.21s37.92,3.98,41.44,9.21Z"/>
  </g>
</svg>